<?xml version="1.0" encoding="iso-8859-1"?>
<!-- Generator: Adobe Illustrator 19.0.0, SVG Export Plug-In . SVG Version: 6.00 Build 0)  -->
<svg version="1.1" id="Capa_1" xmlns="http://www.w3.org/2000/svg" xmlns:xlink="http://www.w3.org/1999/xlink" x="0px" y="0px"
	 viewBox="0 0 166.942 166.942" style="enable-background:new 0 0 166.942 166.942;" xml:space="preserve">
<g>
	<circle style="fill:#9DE7F9;" cx="83.471" cy="83.472" r="83.471"/>
	<g>
		<path style="fill:#FF8800;" d="M67.908,54.526c0,8.292-6.574,15.015-14.684,15.015c-8.11,0-14.685-6.722-14.685-15.015
			c0-8.292,14.685-24.212,14.685-24.212S67.908,46.234,67.908,54.526z"/>
		<path style="fill:#FEFEFD;" d="M60.897,52.331c0,4.333-3.436,7.846-7.673,7.846c-4.238,0-7.675-3.513-7.675-7.846
			c0-4.333,7.675-12.653,7.675-12.653S60.897,47.997,60.897,52.331z"/>
		<path style="fill:#FF8800;" d="M127.271,54.526c0,8.292-6.574,15.015-14.685,15.015c-8.11,0-14.685-6.722-14.685-15.015
			c0-8.292,14.685-24.212,14.685-24.212S127.271,46.234,127.271,54.526z"/>
		<path style="fill:#FEFEFD;" d="M120.26,52.331c0,4.333-3.435,7.846-7.673,7.846c-4.238,0-7.674-3.513-7.674-7.846
			c0-4.333,7.674-12.653,7.674-12.653S120.26,47.997,120.26,52.331z"/>
		<ellipse style="fill:#FEFEFD;" cx="83.862" cy="92.629" rx="57.264" ry="47.797"/>
		<path style="fill:#FF8800;" d="M141.11,93.118c0.003-0.163,0.016-0.325,0.016-0.489c0-26.398-25.639-47.797-57.265-47.797
			S26.598,66.231,26.598,92.629c0,0.163,0.013,0.325,0.015,0.489H141.11z"/>
		<path style="fill:#FEFEFD;" d="M100.095,103.487c0,3.42-7.28,13.61-16.26,13.61c-8.981,0-16.261-10.189-16.261-13.61
			c0-3.421,16.261-24.5,16.261-24.5S100.095,100.066,100.095,103.487z"/>
		<path d="M67.587,103.695c0.271,3.604,7.438,13.402,16.248,13.402c8.808,0,15.976-9.798,16.247-13.402H67.587z"/>
		<ellipse style="fill:#6D3A0B;" cx="58.838" cy="85.902" rx="4.824" ry="4.933"/>
		<ellipse style="fill:#6D3A0B;" cx="107.736" cy="85.902" rx="4.824" ry="4.933"/>
	</g>
</g>
<g>
</g>
<g>
</g>
<g>
</g>
<g>
</g>
<g>
</g>
<g>
</g>
<g>
</g>
<g>
</g>
<g>
</g>
<g>
</g>
<g>
</g>
<g>
</g>
<g>
</g>
<g>
</g>
<g>
</g>
</svg>
