<?xml version="1.0" encoding="iso-8859-1"?>
<!-- Generator: Adobe Illustrator 19.0.0, SVG Export Plug-In . SVG Version: 6.00 Build 0)  -->
<svg version="1.1" id="Capa_1" xmlns="http://www.w3.org/2000/svg" xmlns:xlink="http://www.w3.org/1999/xlink" x="0px" y="0px"
	 viewBox="0 0 166.942 166.942" style="enable-background:new 0 0 166.942 166.942;" xml:space="preserve">
<g>
	<circle style="fill:#9DE7F9;" cx="83.471" cy="83.471" r="83.471"/>
	<g>
		<circle style="fill:#4E4E4D;" cx="40.722" cy="48.664" r="13.078"/>
		<circle style="fill:#959594;" cx="40.722" cy="48.664" r="7.559"/>
		<g>
			<circle style="fill:#4E4E4D;" cx="40.722" cy="48.664" r="13.078"/>
			<circle style="fill:#959594;" cx="40.722" cy="48.664" r="7.559"/>
			<circle style="fill:#4E4E4D;" cx="128.166" cy="48.664" r="13.078"/>
			<circle style="fill:#959594;" cx="128.167" cy="48.664" r="7.559"/>
			<ellipse style="fill:#4E4E4D;" cx="84.683" cy="81.458" rx="58.552" ry="47.798"/>
		</g>
		<ellipse style="fill:#959594;" cx="84.683" cy="108.824" rx="49.608" ry="29.779"/>
		<path style="fill:#70706F;" d="M35.111,109.689c0.766,16.046,22.658,28.914,49.571,28.914c26.914,0,48.807-12.868,49.571-28.914
			H35.111z"/>
		<g>
			<circle style="fill:#FEFEFD;" cx="108.138" cy="72.375" r="4.932"/>
			<circle style="fill:#FEFEFD;" cx="61.227" cy="72.375" r="4.933"/>
		</g>
		<g>
			<circle style="fill:#4E4E4D;" cx="69.682" cy="95.043" r="4.933"/>
			<circle style="fill:#4E4E4D;" cx="99.684" cy="95.043" r="4.933"/>
		</g>
		<g>
			<path style="fill:#FEFEFD;" d="M53.705,109.711c0,2.725-2.208,4.933-4.933,4.933c-2.725,0-4.933-2.208-4.933-4.933
				c0-2.172,3.134-4.669,4.405-5.594c0.315-0.229,0.739-0.229,1.055,0C50.571,105.042,53.705,107.54,53.705,109.711z"/>
			<path style="fill:#FEFEFD;" d="M125.525,109.711c0,2.725-2.208,4.933-4.933,4.933c-2.724,0-4.933-2.208-4.933-4.933
				c0-2.172,3.134-4.669,4.406-5.594c0.315-0.229,0.738-0.229,1.054,0C122.392,105.042,125.525,107.54,125.525,109.711z"/>
		</g>
	</g>
</g>
<g>
</g>
<g>
</g>
<g>
</g>
<g>
</g>
<g>
</g>
<g>
</g>
<g>
</g>
<g>
</g>
<g>
</g>
<g>
</g>
<g>
</g>
<g>
</g>
<g>
</g>
<g>
</g>
<g>
</g>
</svg>
