<?xml version="1.0" encoding="iso-8859-1"?>
<!-- Generator: Adobe Illustrator 19.0.0, SVG Export Plug-In . SVG Version: 6.00 Build 0)  -->
<svg version="1.1" id="Capa_1" xmlns="http://www.w3.org/2000/svg" xmlns:xlink="http://www.w3.org/1999/xlink" x="0px" y="0px"
	 viewBox="0 0 166.943 166.943" style="enable-background:new 0 0 166.943 166.943;" xml:space="preserve">
<g>
	<circle style="fill:#9DE7F9;" cx="83.471" cy="83.472" r="83.471"/>
	<g>
		<g>
			<circle style="fill:#4E4E4D;" cx="120.361" cy="57.373" r="19.73"/>
			<circle style="fill:#5F5E61;" cx="120.361" cy="57.373" r="13.681"/>
			<path style="fill:#4E4E4D;" d="M139.354,61.165c0,0,3.596,1.215,4.096,2.762c0,0-0.162-5.98-5.564-9.108L139.354,61.165z"/>
			<path style="fill:#4E4E4D;" d="M138.34,54.048c0,0,3.749,0.594,4.502,2.034c0,0-1.165-5.868-7.015-8.043L138.34,54.048z"/>
			<path style="fill:#4E4E4D;" d="M136.257,47.589c0,0,3.767-0.465,4.888,0.712c0,0-2.738-5.318-8.961-5.795L136.257,47.589z"/>
			<path style="fill:#4E4E4D;" d="M136.683,66.649c0,0,3.749,0.594,4.501,2.034c0,0-1.164-5.868-7.014-8.044L136.683,66.649z"/>
		</g>
		<g>
			<circle style="fill:#4E4E4D;" cx="45.778" cy="57.373" r="19.73"/>
			<circle style="fill:#5F5E61;" cx="45.779" cy="57.373" r="13.681"/>
			<path style="fill:#4E4E4D;" d="M26.785,61.165c0,0-3.596,1.215-4.096,2.762c0,0,0.162-5.98,5.563-9.108L26.785,61.165z"/>
			<path style="fill:#4E4E4D;" d="M27.798,54.048c0,0-3.748,0.594-4.501,2.034c0,0,1.164-5.868,7.014-8.043L27.798,54.048z"/>
			<path style="fill:#4E4E4D;" d="M29.882,47.589c0,0-3.767-0.465-4.888,0.712c0,0,2.738-5.318,8.962-5.795L29.882,47.589z"/>
			<path style="fill:#4E4E4D;" d="M29.456,66.649c0,0-3.749,0.594-4.501,2.034c0,0,1.164-5.868,7.015-8.044L29.456,66.649z"/>
		</g>
		<ellipse style="fill:#FFFFFF;" cx="84.155" cy="91.711" rx="58.552" ry="47.797"/>
		<path style="fill:#4E4E4D;" d="M53.121,132.455c0,0,15.733-5.128,18.076-21.044c2.343-15.915-10.873-31.866-17.954-33.946
			c-7.081-2.08-25.289-4.493-27.186,6.745C24.01,96.335,25.482,117.337,53.121,132.455z"/>
		<path style="fill:#4E4E4D;" d="M115.17,132.455c0,0-15.733-5.128-18.076-21.044c-2.343-15.915,10.874-31.866,17.954-33.946
			c7.08-2.08,25.524-4.53,27.186,6.745C143.895,95.485,144.711,116.564,115.17,132.455z"/>
		<path style="fill:#4E4E4D;" d="M96.04,120.169c0,2.448-5.326,9.737-11.894,9.737c-6.569,0-11.894-7.289-11.894-9.737
			c0-2.447,5.325-4.432,11.894-4.432C90.714,115.738,96.04,117.722,96.04,120.169z"/>
		<circle style="fill:#FEFEFD;" cx="63.028" cy="104.957" r="4.932"/>
		<circle style="fill:#FEFEFD;" cx="105.472" cy="104.957" r="4.932"/>
		<path style="fill:#4E4E4D;" d="M91.367,44.497c0,0-3.979-0.592-7.283-0.522c-3.304-0.069-7.272,0.593-7.272,0.593
			c17.231,18.573-4.561,76.094-4.561,76.094h11.667h0.332h11.667C95.917,120.661,74.136,63.072,91.367,44.497z"/>
	</g>
</g>
<g>
</g>
<g>
</g>
<g>
</g>
<g>
</g>
<g>
</g>
<g>
</g>
<g>
</g>
<g>
</g>
<g>
</g>
<g>
</g>
<g>
</g>
<g>
</g>
<g>
</g>
<g>
</g>
<g>
</g>
</svg>
