<?xml version="1.0" encoding="iso-8859-1"?>
<!-- Generator: Adobe Illustrator 19.0.0, SVG Export Plug-In . SVG Version: 6.00 Build 0)  -->
<svg version="1.1" id="Capa_1" xmlns="http://www.w3.org/2000/svg" xmlns:xlink="http://www.w3.org/1999/xlink" x="0px" y="0px"
	 viewBox="0 0 166.943 166.943" style="enable-background:new 0 0 166.943 166.943;" xml:space="preserve">
<g>
	<circle style="fill:#9DE7F9;" cx="83.471" cy="83.472" r="83.471"/>
	<g>
		<circle style="fill:#70491A;" cx="39.534" cy="58.493" r="19.73"/>
		<circle style="fill:#70491A;" cx="124.091" cy="55.509" r="19.73"/>
		<path style="fill:#70491A;" d="M39.616,77.332c-3.525,4.486-5.191,9.9-6.796,15.047h0.208c1.488-2.14,2.762-4.258,4.598-6.094
			c-0.954,2.026-1.69,4.052-2.261,6.094h95.939c1.26-4.151,2.153-8.35,2.153-12.726c-0.664,2.321-1.658,4.642-2.984,6.632
			c0.663-5.969,0.995-12.269-0.331-18.238c-0.332,1.99-0.664,4.311-1.658,6.3c0-6.3-2.653-12.269-4.642-18.238v6.3
			c-1.99-6.3-5.637-11.938-9.948-16.912c0.995,1.658,0.995,3.648,1.658,5.638c-3.979-5.638-8.953-10.28-14.59-13.927
			c0.995,1.658,2.984,3.316,3.316,5.305c-5.306-4.311-11.606-7.958-18.238-9.616c1.99,1.326,3.979,2.321,5.637,3.979
			c-6.632-2.653-13.264-3.979-20.228-4.642c2.653,0.995,4.974,1.989,7.627,2.984c-6.963-1.326-13.595-0.663-20.559,0.332
			c3.316-0.332,6.3,0.663,9.616,0.995c-6.632,0.332-13.264,1.658-19.564,3.979c3.647-0.332,7.626-0.995,11.274-0.995
			c-6.3,1.658-12.269,3.647-17.906,6.963c3.979-1.327,7.958-2.653,12.27-2.984c-5.637,1.989-11.274,4.642-16.249,8.29
			c3.979-1.658,8.29-3.648,12.601-4.31c-5.306,2.321-10.28,5.305-14.259,9.284c3.647-2.652,7.958-3.979,12.269-5.637
			c-4.974,2.652-9.285,6.3-13.264,9.948c3.647-2.653,7.627-4.643,11.938-5.969c-4.974,2.653-8.29,6.632-12.269,10.279
			c3.316-2.653,7.295-4.31,10.942-6.3c-3.979,3.647-8.29,6.963-11.605,11.606c2.984-2.321,5.969-4.974,9.616-6.632
			c-3.979,3.647-7.626,7.959-10.279,12.601c2.321-2.653,5.305-4.642,8.29-6.632c-3.979,3.979-6.632,8.953-8.953,13.927
			C34.974,81.311,36.963,78.989,39.616,77.332z"/>
		<ellipse style="fill:#70491A;" cx="83.045" cy="92.831" rx="60.132" ry="49.087"/>
		<ellipse style="fill:#FFE68E;" cx="83.376" cy="92.499" rx="53.816" ry="43.931"/>
		<path style="fill:#70491A;" d="M54.216,130.584c0,0,14.461-4.713,16.613-19.341c2.153-14.628-9.994-29.289-16.501-31.2
			c-6.508-1.912-23.461-4.163-24.987,6.199C27.815,96.605,27.887,115.441,54.216,130.584z"/>
		<path style="fill:#70491A;" d="M112.186,130.584c0,0-14.46-4.713-16.613-19.341c-2.153-14.628,9.994-29.289,16.502-31.2
			c6.507-1.912,23.459-4.163,24.986,6.199C138.588,96.605,138.516,115.441,112.186,130.584z"/>
		<path style="fill:#70491A;" d="M93.968,118.987c0,2.249-4.895,8.949-10.932,8.949c-6.038,0-10.932-6.7-10.932-8.949
			c0-2.249,4.894-4.073,10.932-4.073C89.073,114.915,93.968,116.738,93.968,118.987z"/>
		<circle style="fill:#FFE68E;" cx="63.626" cy="105.006" r="4.533"/>
		<circle style="fill:#FFE68E;" cx="102.637" cy="105.006" r="4.533"/>
		<path style="fill:#70491A;" d="M62.278,52.351c0,0,3.066,7.279-0.474,12.465c-0.084,0.123,0.071,0.265,0.181,0.165
			c3.5-3.177,13.619-12.845,11.878-16.943C73.864,48.039,66.538,46.82,62.278,52.351z"/>
		<path style="fill:#70491A;" d="M56.501,53.668c0,0,2.086,4.953-0.322,8.481c-0.057,0.084,0.048,0.18,0.123,0.112
			c2.382-2.162,9.266-8.739,8.083-11.527C64.385,50.734,59.4,49.904,56.501,53.668z"/>
		<path style="fill:#70491A;" d="M49.623,55.486c0,0,2.086,4.953-0.322,8.482c-0.057,0.084,0.048,0.181,0.124,0.112
			c2.381-2.162,9.266-8.739,8.082-11.527C57.506,52.553,52.522,51.723,49.623,55.486z"/>
		<path style="fill:#70491A;" d="M69.574,51.439c0,0,3.065,7.28-0.474,12.465c-0.085,0.124,0.07,0.265,0.181,0.165
			c3.501-3.177,13.619-12.844,11.878-16.942C81.159,47.127,73.834,45.908,69.574,51.439z"/>
		<path style="fill:#70491A;" d="M89.638,51.439c0,0-3.066,7.28,0.473,12.465c0.085,0.124-0.07,0.265-0.181,0.165
			c-3.5-3.177-13.619-12.844-11.878-16.942C78.052,47.127,85.377,45.908,89.638,51.439z"/>
		<path style="fill:#70491A;" d="M97.347,51.439c0,0-3.066,7.28,0.474,12.465c0.084,0.124-0.07,0.265-0.181,0.165
			c-3.5-3.177-13.619-12.844-11.878-16.942C85.761,47.127,93.087,45.908,97.347,51.439z"/>
		<path style="fill:#70491A;" d="M103.981,51.898c0,0-2.076,4.93,0.321,8.441c0.057,0.083-0.048,0.179-0.122,0.111
			c-2.371-2.151-9.223-8.698-8.045-11.473C96.135,48.978,101.096,48.152,103.981,51.898z"/>
		<path style="fill:#70491A;" d="M110.116,53.681c0,0-2.076,4.93,0.32,8.442c0.057,0.083-0.048,0.179-0.123,0.111
			c-2.37-2.151-9.223-8.698-8.044-11.473C102.27,50.76,107.231,49.935,110.116,53.681z"/>
	</g>
</g>
<g>
</g>
<g>
</g>
<g>
</g>
<g>
</g>
<g>
</g>
<g>
</g>
<g>
</g>
<g>
</g>
<g>
</g>
<g>
</g>
<g>
</g>
<g>
</g>
<g>
</g>
<g>
</g>
<g>
</g>
</svg>
