<?xml version="1.0" encoding="iso-8859-1"?>
<!-- Generator: Adobe Illustrator 19.0.0, SVG Export Plug-In . SVG Version: 6.00 Build 0)  -->
<svg version="1.1" id="Capa_1" xmlns="http://www.w3.org/2000/svg" xmlns:xlink="http://www.w3.org/1999/xlink" x="0px" y="0px"
	 viewBox="0 0 166.943 166.943" style="enable-background:new 0 0 166.943 166.943;" xml:space="preserve">
<g>
	<circle style="fill:#9DE7F9;" cx="83.471" cy="83.472" r="83.471"/>
	<g>
		<circle cx="128.037" cy="53.841" r="13.078"/>
		<circle cx="39.926" cy="53.61" r="13.078"/>
		<ellipse style="fill:#FFFFFF;" cx="83.886" cy="86.405" rx="58.552" ry="47.797"/>
		<path d="M41.11,119.038c0,0,11.556-5.799,13.032-15.83c1.477-10.031-6.853-20.085-11.315-21.396
			c-4.463-1.311-16.36-5.105-17.407,2.001C24.372,90.92,27.423,109.828,41.11,119.038z"/>
		<path d="M126.644,119.038c0,0-11.557-5.799-13.033-15.83c-1.476-10.031,6.853-20.085,11.316-21.396
			c4.462-1.311,16.36-5.105,17.407,2.001C143.381,90.92,140.33,109.828,126.644,119.038z"/>
		<path d="M95.771,105.91c0,2.447-5.325,9.736-11.894,9.736c-6.57,0-11.895-7.289-11.895-9.736c0-2.447,5.325-4.431,11.895-4.431
			C90.446,101.479,95.771,103.463,95.771,105.91z"/>
		<circle style="fill:#FEFEFD;" cx="44.853" cy="98.656" r="4.933"/>
		<circle style="fill:#FEFEFD;" cx="125.099" cy="98.656" r="4.933"/>
		<circle style="fill:#FEFEFD;" cx="105.203" cy="99.651" r="4.932"/>
	</g>
</g>
<g>
</g>
<g>
</g>
<g>
</g>
<g>
</g>
<g>
</g>
<g>
</g>
<g>
</g>
<g>
</g>
<g>
</g>
<g>
</g>
<g>
</g>
<g>
</g>
<g>
</g>
<g>
</g>
<g>
</g>
</svg>
