<?xml version="1.0" encoding="iso-8859-1"?>
<!-- Generator: Adobe Illustrator 19.0.0, SVG Export Plug-In . SVG Version: 6.00 Build 0)  -->
<svg version="1.1" id="Capa_1" xmlns="http://www.w3.org/2000/svg" xmlns:xlink="http://www.w3.org/1999/xlink" x="0px" y="0px"
	 viewBox="0 0 166.942 166.942" style="enable-background:new 0 0 166.942 166.942;" xml:space="preserve">
<g>
	<circle style="fill:#9DE7F9;" cx="83.471" cy="83.471" r="83.471"/>
	<g>
		<path style="fill:#717171;" d="M68.729,52.052c0,8.292-6.574,15.014-14.684,15.014c-8.109,0-14.685-6.722-14.685-15.014
			c0-8.293,14.685-24.213,14.685-24.213S68.729,43.759,68.729,52.052z"/>
		<path style="fill:#FEFEFD;" d="M61.719,49.856c0,4.333-3.436,7.847-7.674,7.847s-7.673-3.514-7.673-7.847
			s7.673-12.652,7.673-12.652S61.719,45.523,61.719,49.856z"/>
		<path style="fill:#717171;" d="M128.093,52.052c0,8.292-6.575,15.014-14.684,15.014c-8.11,0-14.685-6.722-14.685-15.014
			c0-8.293,14.685-24.213,14.685-24.213S128.093,43.759,128.093,52.052z"/>
		<path style="fill:#FEFEFD;" d="M121.081,49.856c0,4.333-3.435,7.847-7.673,7.847c-4.238,0-7.674-3.514-7.674-7.847
			s7.674-12.652,7.674-12.652S121.081,45.523,121.081,49.856z"/>
		<ellipse style="fill:#FEFEFD;" cx="84.683" cy="90.155" rx="57.264" ry="47.797"/>
		<path style="fill:#717171;" d="M141.933,89.977c0.001-0.164,0.014-0.325,0.014-0.489c0-26.397-25.638-47.797-57.264-47.797
			c-31.626,0-57.264,21.399-57.264,47.797c0,0.164,0.013,0.325,0.015,0.489H141.933z"/>
		<ellipse cx="59.659" cy="83.428" rx="4.824" ry="4.933"/>
		<ellipse cx="108.558" cy="83.428" rx="4.824" ry="4.933"/>
		<path style="fill:#717171;" d="M94.587,90.155l-9.564,11.257L74.587,90.234c0,0-30.734,13.178-21.566,29.513
			c7.805,13.905,20.236,13.092,23.001,11.468c2.325-1.365,7.217-4.924,9.001-13.962c1.783,9.038,6.676,12.597,9,13.962
			c2.766,1.624,15.198,2.438,23.002-11.468C126.191,103.412,94.587,90.155,94.587,90.155z"/>
		<path style="fill:#4E4E4D;" d="M100.916,101.012c0,3.421-7.28,13.61-16.261,13.61c-8.98,0-16.26-10.189-16.26-13.61
			c0-3.421,16.26-24.5,16.26-24.5S100.916,97.591,100.916,101.012z"/>
		<path d="M68.408,101.221c0.271,3.604,7.439,13.401,16.247,13.401c8.809,0,15.977-9.798,16.247-13.401H68.408z"/>
	</g>
</g>
<g>
</g>
<g>
</g>
<g>
</g>
<g>
</g>
<g>
</g>
<g>
</g>
<g>
</g>
<g>
</g>
<g>
</g>
<g>
</g>
<g>
</g>
<g>
</g>
<g>
</g>
<g>
</g>
<g>
</g>
</svg>
