<?xml version="1.0" encoding="iso-8859-1"?>
<!-- Generator: Adobe Illustrator 19.0.0, SVG Export Plug-In . SVG Version: 6.00 Build 0)  -->
<svg version="1.1" id="Capa_1" xmlns="http://www.w3.org/2000/svg" xmlns:xlink="http://www.w3.org/1999/xlink" x="0px" y="0px"
	 viewBox="0 0 166.942 166.942" style="enable-background:new 0 0 166.942 166.942;" xml:space="preserve">
<g>
	<circle style="fill:#9DE7F9;" cx="83.471" cy="83.471" r="83.471"/>
	<g>
		<path style="fill:#70491A;" d="M55.859,63.022c0,0-8.666-8.384-10-13.738c0,0-11.725,20.98-18.363,24.314
			c-6.639,3.333-16.762-9.535-12.973-19.269c3.789-9.732,23.669-25.734,30.336-25.066c6.666,0.666,24.316,21.929,21.992,25.298
			C66.852,54.56,65.378,69.476,55.859,63.022z"/>
		<path style="fill:#70491A;" d="M111.863,63.022c0,0,8.667-8.384,10.001-13.738c0,0,11.725,20.98,18.363,24.314
			c6.639,3.333,16.761-9.535,12.972-19.269c-3.789-9.732-23.668-25.734-30.335-25.066c-6.667,0.666-24.317,21.929-21.993,25.298
			C100.871,54.56,102.346,69.476,111.863,63.022z"/>
		<ellipse style="fill:#FEFEFD;" cx="86.804" cy="92.879" rx="60.132" ry="49.086"/>
		<circle cx="103.063" cy="80.386" r="4.533"/>
		<path style="fill:#FFE68E;" d="M86.803,97.916c0,0-41.545-6.551-40.354,12.745c1.191,19.296,9.63,30.054,20.164,32.159
			c10.535,2.105,19.928-12.863,20.19-16.317c0.263,3.454,9.656,18.423,20.19,16.317c10.534-2.106,18.974-12.863,20.164-32.159
			C128.349,91.366,86.803,97.916,86.803,97.916z"/>
		<path style="fill:#70491A;" d="M102.45,105.277c0,3.222-7.012,12.819-15.66,12.819c-8.647,0-15.659-9.598-15.659-12.819
			c0-3.222,7.012-5.833,15.659-5.833C95.438,99.444,102.45,102.055,102.45,105.277z"/>
		<path style="fill:#70491A;" d="M68.906,46.003c0,0,18.71,24.137,13.736,33.124c-4.974,8.987-12.932,17.011-26.194,16.978
			c-13.264-0.032-29.776-12.633-29.776-12.633S33.289,54.582,68.906,46.003z"/>
		<circle cx="68.051" cy="81.052" r="4.534"/>
	</g>
</g>
<g>
</g>
<g>
</g>
<g>
</g>
<g>
</g>
<g>
</g>
<g>
</g>
<g>
</g>
<g>
</g>
<g>
</g>
<g>
</g>
<g>
</g>
<g>
</g>
<g>
</g>
<g>
</g>
<g>
</g>
</svg>
