<?xml version="1.0" encoding="iso-8859-1"?>
<!-- Generator: Adobe Illustrator 19.0.0, SVG Export Plug-In . SVG Version: 6.00 Build 0)  -->
<svg version="1.1" id="Capa_1" xmlns="http://www.w3.org/2000/svg" xmlns:xlink="http://www.w3.org/1999/xlink" x="0px" y="0px"
	 viewBox="0 0 166.942 166.942" style="enable-background:new 0 0 166.942 166.942;" xml:space="preserve">
<g>
	<circle style="fill:#9DE7F9;" cx="83.471" cy="83.471" r="83.471"/>
	<g>
		<g>
			<circle style="fill:#70491A;" cx="41.222" cy="56.846" r="19.73"/>
			<circle style="fill:#FFFFB9;" cx="41.222" cy="56.846" r="12.77"/>
			<circle style="fill:#70491A;" cx="128.159" cy="56.846" r="19.73"/>
			<circle style="fill:#FFFFB9;" cx="128.159" cy="56.846" r="12.771"/>
			<path style="fill:#70491A;" d="M41.304,75.617c-3.524,4.486-5.191,9.9-6.795,15.047h0.208c1.488-2.14,2.762-4.258,4.598-6.094
				c-0.953,2.026-1.689,4.053-2.261,6.094h95.939c1.26-4.15,2.153-8.349,2.153-12.726c-0.663,2.321-1.658,4.643-2.984,6.632
				c0.663-5.969,0.995-12.269-0.331-18.237c-0.331,1.989-0.663,4.311-1.658,6.3c0-6.3-2.652-12.269-4.642-18.238v6.301
				c-1.989-6.301-5.637-11.938-9.948-16.911c0.995,1.657,0.995,3.647,1.658,5.637c-3.979-5.637-8.953-10.279-14.59-13.927
				c0.995,1.658,2.984,3.315,3.316,5.306c-5.306-4.311-11.606-7.958-18.238-9.616c1.989,1.326,3.979,2.321,5.637,3.979
				c-6.632-2.652-13.264-3.979-20.227-4.642c2.652,0.994,4.974,1.989,7.627,2.984c-6.963-1.326-13.595-0.663-20.559,0.331
				c3.316-0.331,6.3,0.663,9.617,0.995c-6.632,0.331-13.264,1.658-19.565,3.979c3.648-0.331,7.627-0.994,11.275-0.994
				c-6.3,1.658-12.269,3.647-17.906,6.963c3.979-1.326,7.958-2.652,12.269-2.984c-5.637,1.99-11.274,4.643-16.248,8.29
				c3.979-1.658,8.29-3.647,12.601-4.311c-5.306,2.321-10.28,5.306-14.259,9.284c3.647-2.652,7.958-3.979,12.269-5.637
				c-4.974,2.652-9.285,6.301-13.264,9.948c3.647-2.652,7.626-4.643,11.938-5.969c-4.974,2.652-8.29,6.632-12.269,10.279
				c3.316-2.652,7.295-4.311,10.943-6.3c-3.979,3.647-8.291,6.963-11.606,11.605c2.984-2.321,5.968-4.974,9.616-6.632
				C41.636,66,37.988,70.311,35.335,74.954c2.321-2.652,5.306-4.643,8.29-6.632c-3.979,3.979-6.632,8.953-8.953,13.927
				C36.662,79.596,38.651,77.275,41.304,75.617z"/>
			<ellipse style="fill:#70491A;" cx="84.733" cy="91.183" rx="60.132" ry="49.087"/>
			<path style="fill:#FFFFB9;" d="M133.95,87.662c0-13.843-12.18-25.064-27.205-25.064c-8.912,0-16.823,3.949-21.785,10.051
				c-4.924-6.434-13.047-10.639-22.24-10.639c-15.024,0-27.205,11.222-27.205,25.066c0,10.607,7.156,19.67,17.26,23.329
				c0,0.01-0.002,0.02-0.002,0.029c0,13.844,14.309,25.065,31.959,25.065c17.408,0,31.556-10.919,31.94-24.5
				C126.786,107.343,133.95,98.277,133.95,87.662z"/>
		</g>
		<circle style="fill:#70491A;" cx="105.904" cy="90.534" r="4.932"/>
		<circle style="fill:#70491A;" cx="63.459" cy="90.534" r="4.933"/>
		<path style="fill:#70491A;" d="M96.692,112.268c0,2.446-5.325,9.736-11.894,9.736c-6.569,0-11.895-7.29-11.895-9.736
			c0-2.447,5.325-4.432,11.895-4.432C91.367,107.836,96.692,109.821,96.692,112.268z"/>
	</g>
</g>
<g>
</g>
<g>
</g>
<g>
</g>
<g>
</g>
<g>
</g>
<g>
</g>
<g>
</g>
<g>
</g>
<g>
</g>
<g>
</g>
<g>
</g>
<g>
</g>
<g>
</g>
<g>
</g>
<g>
</g>
</svg>
