<?xml version="1.0" encoding="iso-8859-1"?>
<!-- Generator: Adobe Illustrator 19.0.0, SVG Export Plug-In . SVG Version: 6.00 Build 0)  -->
<svg version="1.1" id="Capa_1" xmlns="http://www.w3.org/2000/svg" xmlns:xlink="http://www.w3.org/1999/xlink" x="0px" y="0px"
	 viewBox="0 0 166.942 166.942" style="enable-background:new 0 0 166.942 166.942;" xml:space="preserve">
<g>
	<circle style="fill:#9DE7F9;" cx="83.471" cy="83.472" r="83.471"/>
	<g>
		<g>
			<path style="fill:#CF758F;" d="M107.456,40.03c-7.706,7.705-7.706,20.197,0,27.902c7.704,7.705,20.197,7.705,27.901,0
				c7.705-7.705,0-27.902,0-27.902S115.16,32.325,107.456,40.03z"/>
			<circle style="fill:#D991A6;" cx="120.229" cy="55.158" r="13.681"/>
		</g>
		<g>
			<path style="fill:#CF758F;" d="M59.442,40.03c7.705,7.705,7.705,20.197,0,27.902s-20.197,7.705-27.902,0
				c-7.705-7.705,0-27.902,0-27.902S51.737,32.325,59.442,40.03z"/>
			<circle style="fill:#D991A6;" cx="46.668" cy="55.158" r="13.681"/>
		</g>
		<ellipse style="fill:#CF758F;" cx="83.869" cy="88.318" rx="58.552" ry="47.797"/>
		<g>
			<g>
				<ellipse style="fill:#D991A6;" cx="83.869" cy="104.347" rx="31.298" ry="26.926"/>
				<ellipse style="fill:#CF758F;" cx="83.869" cy="104.347" rx="23.934" ry="20.591"/>
				<circle style="fill:#D991A6;" cx="74.928" cy="104.232" r="4.932"/>
				<circle style="fill:#D991A6;" cx="93.371" cy="104.232" r="4.932"/>
			</g>
			<g>
				<circle style="fill:#242424;" cx="58.469" cy="79.564" r="3.958"/>
				<circle style="fill:#242424;" cx="109.268" cy="79.564" r="3.957"/>
			</g>
		</g>
	</g>
</g>
<g>
</g>
<g>
</g>
<g>
</g>
<g>
</g>
<g>
</g>
<g>
</g>
<g>
</g>
<g>
</g>
<g>
</g>
<g>
</g>
<g>
</g>
<g>
</g>
<g>
</g>
<g>
</g>
<g>
</g>
</svg>
