<?xml version="1.0" encoding="iso-8859-1"?>
<!-- Generator: Adobe Illustrator 19.0.0, SVG Export Plug-In . SVG Version: 6.00 Build 0)  -->
<svg version="1.1" id="Capa_1" xmlns="http://www.w3.org/2000/svg" xmlns:xlink="http://www.w3.org/1999/xlink" x="0px" y="0px"
	 viewBox="0 0 166.942 166.942" style="enable-background:new 0 0 166.942 166.942;" xml:space="preserve">
<g>
	<circle style="fill:#9DE7F9;" cx="83.471" cy="83.471" r="83.471"/>
	<g>
		<path style="fill:#B8B8B8;" d="M49.641,81.904c0,0-41.621-49.172-11.149-62.678C64.213,7.827,64.11,76.408,64.11,76.408"/>
		<path style="fill:#EBEBE7;" d="M53.963,72.896c0,0-15.742-33.584-10.313-36.841c5.428-3.257,15.067,35.342,15.067,35.342"/>
		<path style="fill:#B8B8B8;" d="M118.268,81.904c0,0,41.621-49.172,11.149-62.678c-25.72-11.4-25.618,57.181-25.618,57.181"/>
		<path style="fill:#EBEBE7;" d="M114.761,72.896c0,0,15.742-33.584,10.314-36.841c-5.429-3.257-15.068,35.342-15.068,35.342"/>
		<ellipse style="fill:#FFFFFF;" cx="84.683" cy="110.192" rx="58.552" ry="47.797"/>
		<g>
			<circle cx="63.65" cy="110.579" r="4.933"/>
			<circle cx="107.332" cy="110.907" r="4.932"/>
			<path style="fill:#EBEBE7;" d="M86.559,144.988c-0.845,0-1.639,0.213-2.334,0.587c-0.694-0.374-1.488-0.587-2.333-0.587
				c-2.725,0-4.933,2.208-4.933,4.933c0,2.724,2.208,7.847,4.933,7.847c0.845,0,1.639-0.493,2.333-1.254
				c0.695,0.761,1.489,1.254,2.334,1.254c2.724,0,4.933-5.124,4.933-7.847C91.492,147.196,89.283,144.988,86.559,144.988z"/>
			<path style="fill:#B8B8B8;" d="M102.901,143.419c3.718-7.771-6.528-28.192-18.528-29.108v-0.024c0,0,0.104,0.007,0,0.011
				c-0.105-0.004,0-0.011,0-0.011v0.024c-13,0.917-22.412,21.342-18.658,29.108C69.721,151.707,98.929,151.723,102.901,143.419z"/>
			<path style="fill:#959594;" d="M84.198,114.376c-12.667,0.917-22.201,21.342-18.447,29.109
				c1.981,4.101,10.184,6.173,18.447,6.218V114.376z"/>
			<path style="fill:#DE8E4F;" d="M93.564,116.54c0,1.942-4.226,7.725-9.438,7.725c-5.212,0-9.438-5.783-9.438-7.725
				c0-1.942,4.226-3.516,9.438-3.516C89.339,113.024,93.564,114.598,93.564,116.54z"/>
		</g>
	</g>
</g>
<g>
</g>
<g>
</g>
<g>
</g>
<g>
</g>
<g>
</g>
<g>
</g>
<g>
</g>
<g>
</g>
<g>
</g>
<g>
</g>
<g>
</g>
<g>
</g>
<g>
</g>
<g>
</g>
<g>
</g>
</svg>
