<?xml version="1.0" encoding="iso-8859-1"?>
<!-- Generator: Adobe Illustrator 19.0.0, SVG Export Plug-In . SVG Version: 6.00 Build 0)  -->
<svg version="1.1" id="Capa_1" xmlns="http://www.w3.org/2000/svg" xmlns:xlink="http://www.w3.org/1999/xlink" x="0px" y="0px"
	 viewBox="0 0 166.943 166.943" style="enable-background:new 0 0 166.943 166.943;" xml:space="preserve">
<g>
	<circle style="fill:#9DE7F9;" cx="83.471" cy="83.472" r="83.471"/>
	<g>
		<ellipse style="fill:#B8B8B8;" cx="83.256" cy="91.31" rx="60.132" ry="49.087"/>
		<path style="fill:#B8B8B8;" d="M58.25,51.706c0,0,1.421-6.253-7.674-11.084c-9.095-4.832-27.051,5.969-27.452,11.084
			c-0.401,5.116,5.573,11.084,9.266,8.811C36.081,58.242,58.25,51.706,58.25,51.706z"/>
		<path style="fill:#B8B8B8;" d="M108.261,51.706c0,0-1.421-6.253,7.674-11.084c9.095-4.832,27.052,5.969,27.453,11.084
			c0.4,5.116-5.574,11.084-9.266,8.811S108.261,51.706,108.261,51.706z"/>
		<path style="fill:#FFFFFE;" d="M121.996,50.933c0.01-6.582-4.222-13.171-12.711-13.171c-2.771,0-5.08,0.71-6.945,1.884
			c-2.068-2.959-5.444-5.024-10.184-5.024c-5.516,0-9.181,2.788-11.109,6.542c-2.313-2.101-5.332-3.402-8.662-3.402
			c-2.64,0-5.052,0.815-7.131,2.199c-2.111-2.4-5.218-3.993-9.392-3.993c-8.307,0-12.504,6.31-12.674,12.748
			c-11.16,4.956-9.343,25.211,5.43,25.211c2.047,0,3.851-0.39,5.399-1.074c2.427,2.835,5.964,4.661,9.918,4.661
			c3.945,0,7.508-1.817,9.921-4.641c2.424,3.078,6.018,5.089,10.166,5.089c3.497,0,6.669-1.43,9.007-3.72
			c2.376,2.29,5.407,3.72,8.903,3.72c3.334,0,6.363-1.304,8.66-3.41c1.91,1.28,4.306,2.065,7.212,2.065
			C133.227,76.617,134.621,54.877,121.996,50.933z"/>
		<ellipse cx="56.418" cy="99.559" rx="4.824" ry="4.901"/>
		<path style="fill:#FFFFFE;" d="M83.314,110.691c-33.335,0-33.86,21.34-33.86,21.34c13.553,8.951,33.86,8.669,33.86,8.669
			s20.308,0.282,33.86-8.669C117.174,132.031,116.649,110.691,83.314,110.691z"/>
		<ellipse cx="110.651" cy="99.559" rx="4.824" ry="4.901"/>
		<g>
			<circle style="fill:#4E4E4D;" cx="68.33" cy="121.142" r="4.933"/>
			<circle style="fill:#4E4E4D;" cx="98.331" cy="121.142" r="4.933"/>
		</g>
	</g>
</g>
<g>
</g>
<g>
</g>
<g>
</g>
<g>
</g>
<g>
</g>
<g>
</g>
<g>
</g>
<g>
</g>
<g>
</g>
<g>
</g>
<g>
</g>
<g>
</g>
<g>
</g>
<g>
</g>
<g>
</g>
</svg>
