<?xml version="1.0" encoding="iso-8859-1"?>
<!-- Generator: Adobe Illustrator 19.0.0, SVG Export Plug-In . SVG Version: 6.00 Build 0)  -->
<svg version="1.1" id="Capa_1" xmlns="http://www.w3.org/2000/svg" xmlns:xlink="http://www.w3.org/1999/xlink" x="0px" y="0px"
	 viewBox="0 0 166.942 166.942" style="enable-background:new 0 0 166.942 166.942;" xml:space="preserve">
<g>
	<circle style="fill:#9DE7F9;" cx="83.471" cy="83.471" r="83.471"/>
	<g>
		<path d="M40.339,76.974c-3.524,4.486-5.191,9.9-6.796,15.047h0.208c1.488-2.14,2.762-4.259,4.598-6.094
			c-0.953,2.026-1.689,4.052-2.261,6.094h95.939c1.26-4.151,2.153-8.35,2.153-12.726c-0.663,2.321-1.658,4.642-2.984,6.632
			c0.663-5.969,0.995-12.27-0.331-18.238c-0.332,1.989-0.664,4.31-1.658,6.3c0-6.3-2.653-12.269-4.643-18.238v6.301
			c-1.99-6.301-5.638-11.938-9.948-16.912c0.995,1.658,0.995,3.647,1.658,5.637c-3.979-5.637-8.953-10.279-14.591-13.927
			c0.995,1.658,2.984,3.316,3.316,5.306c-5.306-4.311-11.605-7.958-18.238-9.617c1.989,1.326,3.98,2.321,5.638,3.979
			c-6.633-2.653-13.265-3.979-20.228-4.642c2.652,0.995,4.974,1.989,7.627,2.984c-6.964-1.327-13.596-0.663-20.559,0.332
			c3.315-0.332,6.3,0.663,9.615,0.995c-6.631,0.332-13.263,1.658-19.564,3.979c3.647-0.332,7.628-0.995,11.275-0.995
			c-6.301,1.657-12.27,3.647-17.907,6.963c3.979-1.327,7.959-2.653,12.271-2.984c-5.639,1.989-11.275,4.642-16.249,8.29
			c3.979-1.658,8.29-3.647,12.601-4.311c-5.306,2.321-10.279,5.305-14.259,9.285c3.647-2.653,7.958-3.979,12.269-5.637
			c-4.974,2.653-9.284,6.3-13.264,9.948c3.648-2.653,7.627-4.643,11.938-5.969c-4.974,2.653-8.289,6.632-12.268,10.28
			c3.315-2.653,7.295-4.311,10.942-6.301c-3.979,3.648-8.29,6.964-11.605,11.606c2.984-2.321,5.969-4.974,9.616-6.631
			c-3.979,3.647-7.627,7.958-10.279,12.6c2.321-2.653,5.306-4.642,8.289-6.632c-3.979,3.979-6.632,8.954-8.952,13.927
			C35.696,80.953,37.685,78.632,40.339,76.974z"/>
		<circle style="fill:#4E4E4D;" cx="128.021" cy="60.183" r="13.078"/>
		<circle style="fill:#4E4E4D;" cx="39.911" cy="59.951" r="13.078"/>
		<ellipse style="fill:#4E4E4D;" cx="83.872" cy="92.747" rx="58.552" ry="47.797"/>
		<path d="M41.095,125.381c0,0,11.557-5.799,13.033-15.83c1.476-10.031-6.854-20.084-11.316-21.396
			c-4.463-1.311-16.36-5.105-17.407,2C24.357,97.262,27.408,116.17,41.095,125.381z"/>
		<path d="M126.629,125.381c0,0-11.557-5.799-13.033-15.83c-1.476-10.031,6.853-20.084,11.316-21.396
			c4.463-1.311,16.359-5.105,17.406,2C143.365,97.262,140.315,116.17,126.629,125.381z"/>
		<path d="M95.756,112.252c0,2.448-5.325,9.737-11.895,9.737c-6.568,0-11.894-7.29-11.894-9.737c0-2.447,5.325-4.431,11.894-4.431
			C90.431,107.821,95.756,109.805,95.756,112.252z"/>
		<circle style="fill:#FEFEFD;" cx="44.838" cy="104.999" r="4.933"/>
		<circle style="fill:#FEFEFD;" cx="125.084" cy="104.999" r="4.933"/>
		<path d="M84.521,44.158c-3.51-0.073-19.377,0.095-33.443,8.397c0,0,3.949,16.732,13.942,23.583c7.369,5.052,31.634,5.052,39.003,0
			c9.993-6.851,13.18-23.275,13.18-23.275C103.137,44.561,88.032,44.085,84.521,44.158z"/>
	</g>
</g>
<g>
</g>
<g>
</g>
<g>
</g>
<g>
</g>
<g>
</g>
<g>
</g>
<g>
</g>
<g>
</g>
<g>
</g>
<g>
</g>
<g>
</g>
<g>
</g>
<g>
</g>
<g>
</g>
<g>
</g>
</svg>
