<?xml version="1.0" encoding="iso-8859-1"?>
<!-- Generator: Adobe Illustrator 19.0.0, SVG Export Plug-In . SVG Version: 6.00 Build 0)  -->
<svg version="1.1" id="Capa_1" xmlns="http://www.w3.org/2000/svg" xmlns:xlink="http://www.w3.org/1999/xlink" x="0px" y="0px"
	 viewBox="0 0 166.942 166.942" style="enable-background:new 0 0 166.942 166.942;" xml:space="preserve">
<g>
	<circle style="fill:#9DE7F9;" cx="83.471" cy="83.472" r="83.471"/>
	<g>
		<path style="fill:#FF8800;" d="M46.686,74.604c-2.489,4.242-4.738,8.485-5.952,13.138h0.71c0.986-1.526,2.212-2.856,3.295-4.186
			c-0.481,1.394-0.942,2.787-1.364,4.186h93.822c0.935-3.53,1.387-7.11,1.589-10.817c-0.648,2.321-1.946,4.642-3.243,6.631
			c0.973-5.968,0.973-12.269,0-18.238c-0.324,1.99-0.649,4.311-1.621,6.301c-0.973-6.301-1.946-12.601-4.865-18.238
			c0.324,1.99,0.648,4.311,0,6.3c-1.621-6.3-5.513-11.606-9.404-16.912c0.324,1.99,1.297,3.648,1.621,5.637
			c-3.892-5.306-8.756-9.948-14.269-13.927c1.297,1.658,2.27,3.316,3.243,4.974c-5.513-3.979-11.351-7.295-17.837-9.616
			c1.621,1.658,3.567,2.653,5.189,4.311c-6.486-2.653-12.972-3.98-19.782-4.643c2.594,0.332,4.864,1.99,7.459,2.984
			c-6.811-1.327-13.621-0.663-20.106,0.331c3.243,0,6.162,0.664,9.404,0.995c-6.486,0.332-12.972,1.658-19.134,3.979
			c3.567-0.332,7.459-0.995,11.026-0.995c-6.162,1.658-11.999,3.648-17.512,6.963c3.892-1.658,7.783-2.652,11.998-2.984
			c-5.513,1.989-10.702,4.642-15.566,8.29c3.892-2.322,8.108-3.316,12.324-4.311c-5.189,2.321-9.729,5.637-14.27,8.953
			c3.892-1.989,8.108-3.979,12.324-5.306c-4.865,2.653-9.08,6.3-12.972,9.948c3.567-2.652,7.459-4.642,11.675-5.968
			c-4.54,2.653-8.432,6.3-11.999,10.279c3.243-2.653,6.81-4.643,10.378-6.3c-3.892,3.316-7.783,7.295-11.026,11.274
			c2.594-2.653,6.162-4.31,9.404-6.3c-3.892,3.648-7.458,7.627-10.053,12.601c2.269-2.653,4.864-4.974,7.783-6.632
			c-3.243,4.311-6.486,8.953-8.756,13.927C42.146,78.582,44.091,76.261,46.686,74.604z"/>
		<ellipse style="fill:#FF8800;" cx="45.719" cy="50.081" rx="19.296" ry="19.73"/>
		<ellipse style="fill:#FFE68E;" cx="45.72" cy="50.081" rx="11.89" ry="12.158"/>
		<ellipse style="fill:#FF8800;" cx="121.133" cy="50.081" rx="19.296" ry="19.73"/>
		<ellipse style="fill:#FFE68E;" cx="121.133" cy="50.081" rx="11.89" ry="12.158"/>
		<ellipse style="fill:#FF8800;" cx="85.678" cy="86.74" rx="57.264" ry="47.797"/>
		<path style="fill:#FFE68E;" d="M111.771,135.333c5.225-10.99-9.016-39.871-26.016-41.169v-0.033c-1,0-0.354,0.01-0.5,0.015
			c-0.146-0.005-0.5-0.015-0.5-0.015v0.033c-18,1.297-31.004,30.183-25.729,41.169C64.654,147.053,106.188,147.076,111.771,135.333z
			"/>
		<path d="M101.912,110.265c0,3.421-7.28,13.61-16.261,13.61c-8.981,0-16.26-10.189-16.26-13.61s7.28-22.5,16.26-22.5
			C94.631,87.765,101.912,106.844,101.912,110.265z"/>
		<path style="fill:#6D3A0B;" d="M101.912,110.52c0,3-32.521,3-32.521,0c0-4,7.28-22.5,16.26-22.5
			C94.631,88.02,101.912,106.52,101.912,110.52z"/>
		<ellipse style="fill:#6D3A0B;" cx="65.988" cy="94.681" rx="4.824" ry="4.932"/>
		<ellipse style="fill:#6D3A0B;" cx="105.552" cy="94.681" rx="4.824" ry="4.932"/>
		<path style="fill:#6D3A0B;" d="M41.186,56.651l19.005,9.1l-5.224-19.359C54.967,46.392,46.392,50.323,41.186,56.651z"/>
		<path style="fill:#6D3A0B;" d="M127.957,54.502l-18.702,10.176l4.057-19.812C113.312,44.866,122.414,48.482,127.957,54.502z"/>
		<path style="fill:#6D3A0B;" d="M138.998,104.206l-21.786-1.995l11.567,15.999C128.779,118.21,135.554,111.934,138.998,104.206z"/>
		<path style="fill:#6D3A0B;" d="M139.867,71.248l-16.282,12.475l19.329,4.52C142.915,88.242,143.56,80.293,139.867,71.248z"/>
		<path style="fill:#6D3A0B;" d="M28.503,89.425l20.625-9.557l-18.027-7.637C31.101,72.231,27.843,79.683,28.503,89.425z"/>
		<path style="fill:#6D3A0B;" d="M32.531,104.569l21.434-2.247L42.84,118.459C42.84,118.459,35.273,112.349,32.531,104.569z"/>
	</g>
</g>
<g>
</g>
<g>
</g>
<g>
</g>
<g>
</g>
<g>
</g>
<g>
</g>
<g>
</g>
<g>
</g>
<g>
</g>
<g>
</g>
<g>
</g>
<g>
</g>
<g>
</g>
<g>
</g>
<g>
</g>
</svg>
